# xmcd
#
# Track frame offsets:
#	150
#	13672
#	27215
#	45899
#	58057
#	72691
#	85457
#	99484
#	112647
#	123071
#	133784
#	146525
#	162100
#	173867
#	196320
#	208586
#	221482
#	233402
#	247164
#	259443
#	269747
#	279725
#
# Disc length: 3857 seconds
#
# Revision: 0
# Processed by: cddbd v1.5.2PL0 Copyright (c) Steve Scherf et al.
# Submitted via: EasyCDDAExtractor 16.0.6.1
#
DISCID=440f0f16
DTITLE=Various Artist - Country Sunrise [Disc 04]
DYEAR=2006
DGENRE=Country
TTITLE0=Mickey Gilley - True Love Ways
TTITLE1=T. Graham Brown - I Wish I Could Hurt That Way Again
TTITLE2=Exile - I Can't Get Close Enough
TTITLE3=Hank Locklin - It's A Little More Like Heaven
TTITLE4=Eddy Raven - In A Letter To You
TTITLE5=Johnny Tillotson - It Keeps Right On A Hurtin
TTITLE6=Jerri Kelly - Fallin For You
TTITLE7=Ray Stevens - Misty
TTITLE8=Don Gibson - Just One Time
TTITLE9=Patsy Cline - I Can See An Angel Walking
TTITLE10=Janie Fricke - He's A Heartache
TTITLE11=Conway Twitty - Touch The Hand
TTITLE12=Merle Haggard - Carolyn
TTITLE13=Eddie Rabbitt - Suspicions
TTITLE14=Hank Williams - Lovesick Blues
TTITLE15=Bill Anderson - Still
TTITLE16=Jim Reeves - Mexican Joe
TTITLE17=Lefty Frizell - I Want To Be With You Always
TTITLE18=Hank Thompson - The Wild Side Of Life
TTITLE19=Leroy Van Dyke - Walk On By
TTITLE20=Johnny Cash - Ballard Of A Teenage Queen
TTITLE21=Glen Campbell - Dreams Of The Everyday Housewife
EXTD=
EXTT0=
EXTT1=
EXTT2=
EXTT3=
EXTT4=
EXTT5=
EXTT6=
EXTT7=
EXTT8=
EXTT9=
EXTT10=
EXTT11=
EXTT12=
EXTT13=
EXTT14=
EXTT15=
EXTT16=
EXTT17=
EXTT18=
EXTT19=
EXTT20=
EXTT21=
PLAYORDER=
